<?xml version="1.0" encoding="utf-8"?>
<!-- Generator: Adobe Illustrator 25.3.1, SVG Export Plug-In . SVG Version: 6.00 Build 0)  -->
<svg version="1.1" xmlns="http://www.w3.org/2000/svg" xmlns:xlink="http://www.w3.org/1999/xlink" x="0px" y="0px"
	 viewBox="0 0 596.7 171.7" style="enable-background:new 0 0 596.7 171.7;" xml:space="preserve">
<style type="text/css">
	.st0{display:none;}
	.st1{display:inline;fill:#00749C;}
	.st2{clip-path:url(#SVGID_2_);fill:#00749C;}
	.st3{fill:#666666;}
	.st4{display:none;fill:#00739D;}
</style>
<g id="Layer_4" class="st0">
	<rect x="-0.2" y="439.2" class="st1" width="601.3" height="179.7"/>
	<rect x="1123.8" y="-432.8" class="st1" width="999.1" height="274.3"/>
</g>
<g id="Layer_1">
	<g>
		<g>
			<g>
				<defs>
					<rect id="SVGID_1_" x="5.1" y="6.2" width="156.2" height="156.2"/>
				</defs>
				<clipPath id="SVGID_2_">
					<use xlink:href="#SVGID_1_"  style="overflow:visible;"/>
				</clipPath>
				<polygon class="st2" points="5.1,6.2 5.1,162.3 5.1,162.3 98.8,162.3 98.8,131.1 36.3,131.1 36.3,37.4 161.2,37.4 161.2,6.2 
									"/>
				<polygon class="st2" points="67.5,68.6 67.5,99.9 130,99.9 130,162.3 161.2,162.3 161.2,68.6 				"/>
			</g>
		</g>
		<path class="st3" d="M263.6,100.3c0,15-3.9,29.2-25.9,29.2c-12.8,0-22.2-6-24.8-18.9l16.4-4c0.5,3.9,4.1,7.1,8,7.1
			c8.4,0,8.5-9.3,8.5-15.3v-52h17.9V100.3z"/>
		<path class="st3" d="M347.3,96.1c0,19.1-11.7,33.3-34.1,33.3c-22.6,0-34.2-14.2-34.2-33.3V46.3h17.9v49.1c0,10,6.9,17.5,16.4,17.5
			c9.4,0,16.3-7.6,16.3-17.5V46.3h17.9V96.1z"/>
		<path class="st3" d="M379.4,62.1h-23.1V46.3h64.1v15.8h-23.1v65.3h-17.9V62.1z"/>
		<path class="st3" d="M429.5,46.3h31.4c16.6,0,30.6,5.7,30.6,24.6c0,11.3-6.1,20.2-17.5,22.2l20.6,34.2h-21.4L456.1,95h-8.8v32.4
			h-17.9V46.3z M447.3,79.9h10.5c6.5,0,15-0.2,15-9c0-8.1-7.3-9.4-13.9-9.4h-11.7V79.9z"/>
		<path class="st3" d="M501.2,127.2v-15.8h87.9v15.8H501.2z"/>
		<path class="st3" d="M520.2,86.9c0-15.1,10-26.1,25.2-26.1c15.2,0,25.2,11,25.2,26.1c0,6.5-1.8,12.2-5.1,16.6h20.8
			c1.9-5,2.9-10.5,2.9-16.6c0-26-18.4-42.6-43.7-42.6c-25.3,0-43.7,16.6-43.7,42.6c0,6.1,1,11.7,2.9,16.6h20.8
			C522.1,99.1,520.2,93.3,520.2,86.9z"/>
	</g>
	<path class="st4" d="M-497.1-1201.5c0-22.9,15.1-39.5,38.1-39.5c23,0,38.1,16.6,38.1,39.5c0,9.8-2.8,18.4-7.7,25.1h31.4
		c2.8-7.5,4.4-15.9,4.4-25.1c0-39.3-27.9-64.4-66.1-64.4s-66.1,25.1-66.1,64.4c0,9.2,1.5,17.6,4.4,25.1h31.4
		C-494.3-1183.1-497.1-1191.8-497.1-1201.5z"/>
</g>
</svg>
